<?xml version="1.0" encoding="UTF-8"?>
<svg id="Camada_1" data-name="Camada 1" xmlns="http://www.w3.org/2000/svg" viewBox="0 0 52.58 63.02">
  <defs>
    <style>
      .cls-1 {
        fill: #e7e6e2;
      }
    </style>
  </defs>
  <path class="cls-1" d="M10.45,52.99v-2.96c0-.47.38-.86.86-.86h2.42c.24,0,.43-.19.43-.43v-2.46c0-.34.15-.66.41-.87l2.4-2.01c.42-.35.66-.86.66-1.4v-7.34c0-.5-.35-.93-.83-1.03-.93-.21-1.69-.49-2.25-.84-.73-.44-1.09-.89-1.09-1.33s.36-.89,1.09-1.33c.54-.33,1.24-.6,2.11-.8.5-.12.76-.67.55-1.13l-5.89-13.07.28-.19,7.45,7.57c.36.37.98.06.91-.45l-1.61-10.92.28-.1,4.68,9.24c.23.46.92.35,1-.15l1.82-10.94h.38l1.78,10.93c.08.51.77.61,1,.16l4.68-9.23.33.1-1.61,10.91c-.08.51.55.82.91.45l7.4-7.57.28.19-5.89,13.07c-.21.47.05,1.01.55,1.13.87.21,1.57.47,2.11.8.73.44,1.09.89,1.09,1.33s-.36.89-1.09,1.33c-.57.35-1.32.62-2.25.84-.48.11-.83.54-.83,1.03v7.34c0,.55.24,1.06.67,1.41l2.43,2.01c.26.22.41.54.41.88v2.46c0,.24.19.43.43.43h2.37c.47,0,.86.38.86.86v2.96c0,.46-.38.84-.84.84H11.29c-.46,0-.84-.38-.84-.84Z"/>
</svg>