<?xml version="1.0" encoding="UTF-8"?>
<svg id="Camada_1" data-name="Camada 1" xmlns="http://www.w3.org/2000/svg" viewBox="0 0 192 108">
  <defs>
    <style>
      .cls-1 {
        fill: #5a14c0;
      }

      .cls-2 {
        fill: #e7e6e2;
      }

      .cls-3 {
        fill: #666;
      }

      .cls-4 {
        fill: #1f1f1f;
      }
    </style>
  </defs>
  <rect class="cls-2" x="-13.17" y="-7.41" width="218.35" height="122.82"/>
  <path class="cls-4" d="M192,64.9v-21.85h-18.26c-1.98,0-3.59,1.61-3.59,3.59v14.4c0,1.98-1.61,3.59-3.59,3.59h-14.33c-1.98,0-3.59,1.61-3.59,3.59v14.34c0,1.98-1.61,3.59-3.59,3.59h-14.35c-1.98,0-3.59,1.61-3.59,3.59v18.26h21.85v-17.93c0-1.98,1.61-3.59,3.59-3.59h14.01c1.98,0,3.59,1.61,3.59,3.59v17.93h21.85v-21.85h-17.91c-1.98,0-3.59-1.61-3.59-3.59v-14.08c0-1.98,1.61-3.59,3.59-3.59h17.91Z"/>
  <path class="cls-4" d="M0,43.1v21.85h18.26c1.98,0,3.59-1.61,3.59-3.59v-14.4c0-1.98,1.61-3.59,3.59-3.59h14.33c1.98,0,3.59-1.61,3.59-3.59v-14.34c0-1.98,1.61-3.59,3.59-3.59h14.35c1.98,0,3.59-1.61,3.59-3.59V0h-21.85v17.93c0,1.98-1.61,3.59-3.59,3.59h-14.01c-1.98,0-3.59-1.61-3.59-3.59V0H0v21.85h17.91c1.98,0,3.59,1.61,3.59,3.59v14.08c0,1.98-1.61,3.59-3.59,3.59H0Z"/>
  <g>
    <polygon class="cls-3" points="7.24 14.25 8.06 14.25 8.06 13.49 8.83 12.84 8.83 8.99 8.06 8.34 8.06 7.6 7.45 7.6 7.45 6.24 8.44 6.24 8.44 7.21 9.27 7.21 9.27 6.24 10.35 6.24 10.35 7.21 11.18 7.21 11.18 6.24 12.25 6.24 12.25 7.21 13.08 7.21 13.08 6.24 14.07 6.24 14.07 7.6 13.47 7.6 13.47 8.34 12.69 8.99 12.69 12.84 13.47 13.49 13.47 14.25 14.28 14.25 14.28 15.28 7.24 15.28 7.24 14.25"/>
    <path class="cls-3" d="M28.76,37.11v-1.04h.82v-.76l1.04-.87.6-2.57c-.21-.06-.37-.15-.49-.25-.12-.1-.17-.2-.17-.3,0-.13.08-.24.25-.35.17-.11.4-.19.7-.25v-.04c-.28-.13-.51-.34-.69-.61-.18-.27-.26-.57-.26-.9,0-.48.17-.89.51-1.23s.75-.51,1.23-.51.88.17,1.21.51c.34.34.51.75.51,1.23,0,.33-.09.63-.26.9-.18.27-.41.47-.69.61v.04c.3.06.54.15.7.25.17.11.25.22.25.35,0,.1-.06.2-.17.3-.12.1-.28.18-.49.25l.6,2.57,1.05.87v.76h.81v1.04h-7.05Z"/>
    <path class="cls-3" d="M13.47,57.13v-.76l-1.05-.87-.37-1.57c.36-.2.64-.49.83-.85.2-.36.3-.75.3-1.17,0-.56-.17-1.06-.52-1.49-.35-.43-.81-.7-1.4-.8v-.02c.17-.15.25-.35.25-.6,0-.2-.07-.38-.22-.53-.15-.15-.32-.23-.53-.23s-.38.08-.53.23-.23.33-.23.53c0,.25.08.45.25.6v.02c-.59.11-1.06.37-1.4.8-.35.43-.52.93-.52,1.49,0,.42.1.81.3,1.17.2.36.48.64.83.85l-.37,1.57-1.04.87v.76h-.82v1.04h7.05v-1.04h-.81ZM11.74,51.78h-.74v1.38h-.48v-1.38h-.74v-.43h.74v-.73h.48v.73h.74v.43Z"/>
  </g>
  <g>
    <path class="cls-1" d="M181.5,94.48c.3-.42.74-.62,1.32-.62.42,0,.78.13,1.06.4.29.27.43.6.43,1,0,.34-.11.66-.32.97-.21.31-.52.56-.9.77v.06h1.01v.87h-.93v1.84l.78.64v.76h.81v1.04h-7.05v-1.04h.82v-.76l.77-.64v-1.84h-.93v-.87h1.02v-.06c-.39-.2-.69-.46-.91-.77-.22-.31-.33-.63-.33-.97,0-.4.14-.74.43-1,.29-.27.64-.4,1.06-.4.58,0,1.02.21,1.32.62h.02v-1.08h-.74v-.43h.74v-.7h.48v.7h.74v.43h-.74v1.08h.02Z"/>
    <path class="cls-1" d="M156.2,80.68v-1.04h.82v-.76l.77-.64v-2.02c-.3-.05-.52-.12-.69-.22-.16-.1-.24-.2-.24-.3s.08-.2.24-.3c.16-.1.39-.17.69-.22l-1.4-3.12.06-.04,1.91,1.94-.41-2.79.06-.02,1.2,2.38.46-2.79h.08l.45,2.79,1.2-2.38.07.02-.41,2.79,1.9-1.94.06.04-1.4,3.12c.3.05.52.12.69.22.16.1.24.2.24.3s-.08.2-.24.3c-.16.1-.39.17-.69.22v2.02l.78.64v.76h.81v1.04h-7.05Z"/>
  </g>
  <g>
    <path class="cls-3" d="M76.41,49.13h.47l1.61,2.46c.12.18.26.45.26.45h.01v-2.91h.42v3.53h-.45l-1.62-2.46c-.11-.17-.26-.44-.26-.44h0v2.9h-.42v-3.53Z"/>
    <path class="cls-3" d="M79.61,50.9c0-1.06.66-1.84,1.73-1.84s1.73.79,1.73,1.84-.66,1.84-1.73,1.84-1.73-.79-1.73-1.84ZM82.62,50.9c0-.83-.44-1.46-1.28-1.46s-1.28.63-1.28,1.46.45,1.45,1.28,1.45,1.28-.62,1.28-1.45Z"/>
    <path class="cls-3" d="M83.06,49.13h2.8v.39h-1.18v3.14h-.44v-3.14h-1.18v-.39Z"/>
    <path class="cls-3" d="M86.67,51.57v-.05h.44v.03c0,.63.2.82.61.82.36,0,.56-.18.56-.63v-2.61h.44v2.64c0,.56-.34.96-1.02.96-.64,0-1.04-.35-1.04-1.17Z"/>
    <path class="cls-3" d="M89.19,51.53v-2.39h.44v2.35c0,.6.34.86.92.86s.89-.26.89-.86v-2.35h.44v2.39c0,.86-.6,1.2-1.35,1.2s-1.35-.34-1.35-1.2Z"/>
    <path class="cls-3" d="M92.24,51.47h.44c.06.6.42.91,1.09.91.49,0,.84-.22.84-.66,0-.48-.43-.6-1.06-.74-.62-.14-1.16-.32-1.16-.98,0-.58.48-.93,1.2-.93.88,0,1.25.45,1.34,1.1h-.42c-.06-.5-.39-.76-.91-.76-.48,0-.8.2-.8.57,0,.4.4.52.92.62.69.14,1.32.31,1.32,1.1,0,.66-.54,1.03-1.3,1.03-.99,0-1.47-.55-1.51-1.27Z"/>
    <path class="cls-3" d="M95.06,49.13h2.8v.39h-1.18v3.14h-.44v-3.14h-1.18v-.39Z"/>
    <path class="cls-3" d="M98.89,49.13h.57l1.15,2.94h0l1.14-2.94h.58v3.53h-.43v-2.91h0s-.09.28-.16.44l-.97,2.46h-.34l-.97-2.46c-.07-.18-.16-.44-.16-.44h0v2.91h-.4v-3.53Z"/>
    <path class="cls-3" d="M102.77,50.9c0-1.06.66-1.84,1.73-1.84s1.73.79,1.73,1.84-.66,1.84-1.73,1.84-1.73-.79-1.73-1.84ZM105.77,50.9c0-.83-.45-1.46-1.28-1.46s-1.28.63-1.28,1.46.45,1.45,1.28,1.45,1.28-.62,1.28-1.45Z"/>
    <path class="cls-3" d="M106.21,49.13h.48l.87,2.63c.05.16.14.47.14.47h.01s.08-.32.14-.47l.86-2.63h.46l-1.24,3.53h-.49l-1.23-3.53Z"/>
    <path class="cls-3" d="M109.45,49.13h2.5v.39h-2.05v1.12h1.86v.38h-1.86v1.24h2.11v.41h-2.56v-3.53Z"/>
    <path class="cls-3" d="M112.16,51.47h.44c.06.6.42.91,1.09.91.49,0,.84-.22.84-.66,0-.48-.42-.6-1.06-.74-.62-.14-1.16-.32-1.16-.98,0-.58.48-.93,1.2-.93.88,0,1.25.45,1.34,1.1h-.42c-.06-.5-.39-.76-.91-.76-.48,0-.8.2-.8.57,0,.4.4.52.92.62.69.14,1.32.31,1.32,1.1,0,.66-.54,1.03-1.3,1.03-.99,0-1.47-.55-1.51-1.27Z"/>
    <path class="cls-3" d="M115.22,52.18h.48v.49h-.48v-.49Z"/>
    <path class="cls-1" d="M78.22,54.74h1.55c.41,0,.72.12.92.33.2.2.32.48.32.81,0,.67-.44,1.12-1.18,1.12h-.87v1.28h-.74v-3.54ZM78.96,56.41h.74c.38,0,.57-.21.57-.53s-.21-.52-.56-.52h-.75v1.05Z"/>
    <path class="cls-1" d="M81.27,57.14v-2.4h.72v2.4c0,.37.18.62.66.62s.67-.27.67-.63v-2.39h.72v2.4c0,.76-.46,1.2-1.37,1.2s-1.39-.43-1.39-1.2Z"/>
    <path class="cls-1" d="M84.45,54.74h1.62c.68,0,1.14.4,1.14.98,0,.42-.19.73-.65.86h0c.33.11.49.3.54.73.05.5.03.88.15.93v.03h-.69c-.09-.04-.1-.43-.13-.82-.03-.39-.25-.6-.69-.6h-.58v1.42h-.72v-3.54ZM85.17,56.3h.76c.39,0,.58-.2.58-.48s-.18-.5-.56-.5h-.78v.98Z"/>
    <path class="cls-1" d="M87.57,54.74h1.55c.41,0,.72.12.92.33.2.2.32.48.32.81,0,.67-.44,1.12-1.18,1.12h-.87v1.28h-.74v-3.54ZM88.31,56.41h.74c.38,0,.57-.21.57-.53s-.21-.52-.56-.52h-.75v1.05Z"/>
    <path class="cls-1" d="M90.63,54.74h.72v2.94h1.66v.6h-2.38v-3.54Z"/>
    <path class="cls-1" d="M93.29,54.74h2.6v.6h-1.88v.79h1.65v.59h-1.65v.95h1.9v.6h-2.62v-3.54Z"/>
    <path class="cls-1" d="M96.99,54.74h1.01l.5,1.78c.12.44.22.95.22.95h0s.09-.51.22-.95l.5-1.78h1.02v3.54h-.67v-2.03c0-.29.03-.73.03-.73h0s-.08.42-.15.67l-.61,2.09h-.69l-.59-2.09c-.07-.26-.15-.67-.15-.67h-.01s.03.45.03.73v2.03h-.66v-3.54Z"/>
    <path class="cls-1" d="M100.77,56.52c0-1.06.66-1.84,1.71-1.84s1.7.79,1.7,1.84-.66,1.84-1.7,1.84-1.71-.78-1.71-1.84ZM103.44,56.52c0-.71-.32-1.26-.96-1.26s-.98.55-.98,1.26.33,1.25.98,1.25.96-.55.96-1.25Z"/>
    <path class="cls-1" d="M104.03,54.74h.75l.62,2.05c.07.23.15.56.15.56h.01s.08-.34.15-.56l.62-2.05h.73l-1.19,3.54h-.65l-1.19-3.54Z"/>
    <path class="cls-1" d="M107.25,54.74h2.6v.6h-1.88v.79h1.65v.59h-1.65v.95h1.9v.6h-2.62v-3.54Z"/>
    <path class="cls-1" d="M110.03,57.18h.7c.05.43.29.59.8.59.37,0,.69-.13.69-.46,0-.35-.34-.42-.88-.54-.63-.14-1.21-.31-1.21-1.05,0-.7.57-1.06,1.35-1.06s1.31.39,1.36,1.1h-.69c-.04-.36-.32-.53-.68-.53-.39,0-.64.16-.64.42,0,.29.25.37.77.48.73.16,1.32.33,1.32,1.09,0,.72-.58,1.12-1.37,1.12-.96,0-1.5-.42-1.53-1.17Z"/>
    <path class="cls-1" d="M113.15,57.56h.72v.72h-.72v-.72Z"/>
  </g>
</svg>