<?xml version="1.0" encoding="UTF-8"?>
<svg id="Camada_2" data-name="Camada 2" xmlns="http://www.w3.org/2000/svg" viewBox="0 0 757.4 118.17">
  <defs>
    <style>
      .cls-1 {
        fill: #1b1c1c;
      }
    </style>
  </defs>
  <g id="Camada_1-2" data-name="Camada 1">
    <g>
      <path class="cls-1" d="M679.77,79.9v-22.34h77.62v-17.77h-122.94v40.11h-63.72v-40.11h-172.58v38.46c-.25-1.33-.51-2.67-.82-3.94-2.6-11.17-9.08-19.17-21.64-23.55v-.57c6.47-2.73,11.81-6.16,15.87-10.41h-170.36v22.98c0,12.95-7.81,22.15-23.23,22.15-16.69,0-24.5-8.19-24.5-21.39v-23.74H0v75.85h45.32v-43.54h34.27c22.6,0,40.43-10.92,48.56-27.29v16.31c0,35.73,22.53,57.06,69.18,57.06,40.75,0,63.34-16.95,68.17-44.88,0,0,0,0,0,0v42.34s45.32,0,45.32,0v-49.7h21.07c13.2,0,18.41,5.59,21.2,16.57,3.3,12.76,1.52,30.34,5.9,33.13h39.16s5.46,0,5.46,0h39.86v-43.54h34.27c21.83,0,39.23-10.16,47.67-25.64,0,0,0,0,0,0v69.18s109.04,0,109.04,0h122.94v-35.73h-77.62Z"/>
      <g>
        <path class="cls-1" d="M130.37,34.53h43.1V0h-45.32v29.07s0,0,0,0c-2.92-6.16-7.17-11.49-12.57-15.87C105.36,4.82,91.08,0,71.34,0H0v34.53h130.37Z"/>
        <path class="cls-1" d="M266.51,34.53h304.22V0h-45.32v27.36s0,0,0,0c-2.86-5.4-6.79-10.16-11.68-14.15-10.22-8.38-24.5-13.2-44.24-13.2h-71.34v27.48s0,0,0,0c-7.62-18.72-30.08-27.48-55.66-27.48h-121.29v34.53h45.32Z"/>
        <rect class="cls-1" x="634.46" width="122.94" height="33.96"/>
      </g>
    </g>
  </g>
</svg>