<?xml version="1.0" encoding="UTF-8"?>
<svg id="Camada_1" data-name="Camada 1" xmlns="http://www.w3.org/2000/svg" xmlns:xlink="http://www.w3.org/1999/xlink" viewBox="0 0 108 135">
  <defs>
    <style>
      .cls-1 {
        fill: #5a14c0;
      }

      .cls-2 {
        fill: #ffb380;
      }

      .cls-3 {
        fill: url(#Gradiente_sem_nome_3);
      }

      .cls-4 {
        fill: #e7e6e2;
      }

      .cls-5 {
        fill: #666;
      }

      .cls-6 {
        fill: #1b1b1b;
      }
    </style>
    <linearGradient id="Gradiente_sem_nome_3" data-name="Gradiente sem nome 3" x1="55.74" y1="107.3" x2="55.74" y2="52" gradientUnits="userSpaceOnUse">
      <stop offset=".1" stop-color="#cbcbcb"/>
      <stop offset=".33" stop-color="#e7dc9d"/>
      <stop offset=".66" stop-color="#5a14c0"/>
      <stop offset=".9" stop-color="#1f1f1f"/>
    </linearGradient>
  </defs>
  <path class="cls-2" d="M90.99,37.41v23.67h-51.26c-.8,0-1.46-.65-1.46-1.46v-.72h0v-17.15l8.04-5.81h43.22c.8,0,1.46.65,1.46,1.46Z"/>
  <path class="cls-6" d="M27.18,52.11v-1.65c0-.26.21-.48.48-.48h1.35c.13,0,.24-.11.24-.24v-1.37c0-.19.08-.37.23-.49l1.34-1.12c.23-.19.37-.48.37-.78v-4.09c0-.28-.19-.52-.46-.58-.52-.12-.94-.27-1.26-.47-.41-.25-.61-.49-.61-.74s.2-.49.61-.74c.3-.18.69-.33,1.18-.45.28-.07.42-.37.31-.63l-3.28-7.29.16-.11,4.15,4.22c.2.2.55.03.5-.25l-.9-6.09.16-.05,2.61,5.15c.13.26.51.2.56-.09l1.02-6.1h.21l.99,6.09c.05.28.43.34.56.09l2.61-5.14.18.05-.9,6.08c-.04.28.3.46.51.25l4.13-4.22.16.11-3.28,7.29c-.12.26.03.56.31.63.48.12.88.26,1.18.45.41.25.61.49.61.74s-.2.49-.61.74c-.32.19-.74.35-1.26.47-.27.06-.46.3-.46.58v4.09c0,.3.14.59.37.79l1.36,1.12c.15.12.23.3.23.49v1.37c0,.13.11.24.24.24h1.32c.26,0,.48.21.48.48v1.65c0,.26-.21.47-.47.47h-16.72c-.26,0-.47-.21-.47-.47Z"/>
  <path class="cls-4" d="M17.01,44.82h48.8c1.12,0,2.03.91,2.03,2.03v50.23c0,1.12-.91,2.03-2.03,2.03H25.11l-8.1-11.22v-43.08Z"/>
  <rect class="cls-3" x="34.53" y="52" width="42.41" height="55.3"/>
  <g>
    <path class="cls-4" d="M39.86,75.34h.6v.22h-.33v1.42h.33v.22h-.6v-1.86Z"/>
    <path class="cls-4" d="M40.61,75.42h.43l.21.76c.05.19.1.41.1.41h0s.04-.22.09-.41l.21-.76h.44v1.51h-.28v-.86c0-.12.01-.31.01-.31h0s-.03.18-.06.29l-.26.89h-.29l-.25-.89c-.03-.11-.06-.29-.06-.29h0s.01.19.01.31v.86h-.28v-1.51Z"/>
    <path class="cls-4" d="M42.28,75.42h1.11v.26h-.8v.34h.7v.25h-.7v.41h.81v.25h-1.11v-1.51Z"/>
    <path class="cls-4" d="M43.54,75.42h.31l.5.84c.05.08.1.21.1.21h0s0-.16,0-.26v-.79h.3v1.51h-.29l-.51-.83c-.05-.08-.11-.21-.11-.21h0s0,.16,0,.26v.78h-.3v-1.51Z"/>
    <path class="cls-4" d="M44.87,75.42h1.21v.26h-.45v1.25h-.31v-1.25h-.45v-.26Z"/>
    <path class="cls-4" d="M46.19,75.42h1.11v.26h-.8v.34h.7v.25h-.7v.41h.81v.25h-1.11v-1.51Z"/>
    <path class="cls-4" d="M47.37,76.46h.3c.02.18.12.25.34.25.16,0,.29-.05.29-.19,0-.15-.14-.18-.37-.23-.27-.06-.52-.13-.52-.45,0-.3.24-.45.58-.45s.56.17.58.47h-.29c-.02-.15-.13-.23-.29-.23-.16,0-.27.07-.27.18,0,.12.11.16.33.21.31.07.56.14.56.46,0,.31-.25.48-.59.48-.41,0-.64-.18-.65-.5Z"/>
    <path class="cls-4" d="M61.89,76.18c0-.45.28-.79.72-.79.37,0,.59.22.62.51h-.3c-.03-.15-.14-.25-.32-.25-.28,0-.41.23-.41.53s.16.53.41.53c.18,0,.3-.11.32-.27h.3c0,.13-.07.26-.17.36-.1.1-.25.16-.46.16-.42,0-.72-.33-.72-.78Z"/>
    <path class="cls-4" d="M63.35,75.42h.69c.29,0,.48.17.48.42,0,.18-.08.31-.28.36h0c.14.05.21.13.23.31.02.21.01.38.07.4h0s-.29.01-.29.01c-.04-.02-.04-.19-.05-.35-.01-.16-.1-.26-.29-.26h-.25v.6h-.3v-1.51ZM63.66,76.09h.32c.17,0,.25-.09.25-.21s-.08-.21-.24-.21h-.33v.42Z"/>
    <path class="cls-4" d="M64.68,75.42h.3v1.51h-.3v-1.51Z"/>
    <path class="cls-4" d="M65.6,75.42h.32l.53,1.51h-.32l-.1-.32h-.54l-.1.32h-.31l.52-1.51ZM65.55,76.37h.4l-.13-.43c-.03-.08-.06-.23-.06-.23h0s-.04.15-.06.23l-.13.43Z"/>
    <path class="cls-4" d="M66.26,75.42h1.21v.26h-.45v1.25h-.31v-1.25h-.45v-.26Z"/>
    <path class="cls-4" d="M67.58,75.42h.3v1.51h-.3v-1.51Z"/>
    <path class="cls-4" d="M67.97,75.42h.32l.27.87c.03.1.07.24.07.24h0s.04-.14.07-.24l.26-.87h.31l-.51,1.51h-.28l-.51-1.51Z"/>
    <path class="cls-4" d="M69.6,75.42h.32l.53,1.51h-.32l-.1-.32h-.54l-.1.32h-.31l.52-1.51ZM69.55,76.37h.4l-.13-.43c-.03-.08-.06-.23-.06-.23h0s-.04.15-.06.23l-.13.43Z"/>
    <path class="cls-4" d="M70.44,76.46h.3c.02.18.12.25.34.25.16,0,.29-.05.29-.19,0-.15-.14-.18-.37-.23-.27-.06-.52-.13-.52-.45,0-.3.24-.45.58-.45s.56.17.58.47h-.29c-.02-.15-.13-.23-.29-.23-.16,0-.27.07-.27.18,0,.12.11.16.33.21.31.07.56.14.56.46,0,.31-.25.48-.58.48-.41,0-.64-.18-.65-.5Z"/>
    <path class="cls-4" d="M39.78,78.57c0-.45.28-.79.72-.79.37,0,.59.22.62.51h-.3c-.03-.15-.14-.25-.32-.25-.28,0-.41.23-.41.53s.16.53.41.53c.18,0,.31-.11.32-.27h.3c0,.13-.07.26-.17.36-.1.1-.25.16-.46.16-.42,0-.72-.33-.72-.78Z"/>
    <path class="cls-4" d="M41.18,78.56c0-.45.28-.79.73-.79s.72.33.72.79-.28.78-.72.78-.73-.33-.73-.78ZM42.32,78.56c0-.3-.13-.53-.41-.53s-.42.23-.42.53.14.53.42.53.41-.23.41-.53Z"/>
    <path class="cls-4" d="M42.75,77.81h.43l.21.76c.05.19.1.41.1.41h0s.04-.22.09-.41l.21-.76h.44v1.51h-.28v-.86c0-.12.01-.31.01-.31h0s-.03.18-.06.29l-.26.89h-.29l-.25-.89c-.03-.11-.06-.29-.06-.29h0s.01.19.01.31v.86h-.28v-1.51Z"/>
    <path class="cls-4" d="M58.94,77.81h1.11v.26h-.8v.34h.7v.25h-.7v.41h.81v.25h-1.11v-1.51Z"/>
    <path class="cls-4" d="M60.59,78.53l-.45-.72h.34l.28.48h0l.28-.48h.33l-.44.72.5.79h-.36l-.31-.55h0l-.31.55h-.35l.49-.79Z"/>
    <path class="cls-4" d="M61.52,77.81h.66c.17,0,.3.05.39.14.08.09.13.2.13.34,0,.28-.19.48-.5.48h-.37v.54h-.32v-1.51ZM61.84,78.52h.32c.16,0,.25-.09.25-.23s-.09-.22-.24-.22h-.32v.45Z"/>
    <path class="cls-4" d="M62.82,77.81h1.11v.26h-.8v.34h.7v.25h-.7v.41h.81v.25h-1.11v-1.51Z"/>
    <path class="cls-4" d="M64.08,77.81h.69c.29,0,.48.17.48.42,0,.18-.08.31-.28.36h0c.14.05.21.13.23.31.02.21.01.38.07.4h0s-.29.01-.29.01c-.04-.02-.04-.19-.05-.35-.01-.16-.1-.26-.29-.26h-.25v.6h-.3v-1.51ZM64.39,78.47h.32c.17,0,.25-.09.25-.21s-.08-.21-.24-.21h-.33v.42Z"/>
    <path class="cls-4" d="M65.41,77.81h.3v1.51h-.3v-1.51Z"/>
    <path class="cls-4" d="M65.91,77.81h1.11v.26h-.8v.34h.7v.25h-.7v.41h.81v.25h-1.11v-1.51ZM66.32,77.49h.31l.2.24h-.25l-.1-.12h0l-.1.12h-.25l.2-.24Z"/>
    <path class="cls-4" d="M67.17,77.81h.31l.5.84c.05.08.11.21.11.21h0s0-.16,0-.26v-.79h.3v1.51h-.29l-.51-.83c-.05-.08-.11-.21-.11-.21h0s0,.16,0,.26v.78h-.3v-1.51Z"/>
    <path class="cls-4" d="M68.51,78.57c0-.45.28-.79.72-.79.37,0,.59.22.62.51h-.3c-.03-.15-.14-.25-.32-.25-.28,0-.41.23-.41.53s.16.53.41.53c.18,0,.3-.11.32-.27h.3c0,.13-.07.26-.17.36-.1.1-.25.16-.46.16-.42,0-.72-.33-.72-.78Z"/>
    <path class="cls-4" d="M69.98,77.81h.3v1.51h-.3v-1.51Z"/>
    <path class="cls-4" d="M70.89,77.81h.32l.53,1.51h-.32l-.1-.32h-.54l-.1.32h-.31l.52-1.51ZM70.84,78.76h.4l-.13-.43c-.03-.08-.06-.23-.06-.23h0s-.04.15-.06.23l-.13.43Z"/>
    <path class="cls-4" d="M39.84,80.2h1.11v.26h-.8v.34h.7v.25h-.7v.41h.81v.25h-1.11v-1.51Z"/>
    <path class="cls-4" d="M41.11,80.2h.43l.21.76c.05.19.09.41.09.41h0s.04-.22.09-.41l.21-.76h.44v1.51h-.28v-.86c0-.12.01-.31.01-.31h0s-.03.18-.06.29l-.26.89h-.29l-.25-.89c-.03-.11-.07-.29-.07-.29h0s.01.19.01.31v.86h-.28v-1.51Z"/>
    <path class="cls-4" d="M47.51,80.2h.32l.53,1.51h-.32l-.1-.32h-.54l-.1.32h-.31l.52-1.51ZM47.46,81.15h.4l-.13-.43c-.02-.08-.06-.23-.06-.23h0s-.04.15-.06.23l-.13.43Z"/>
    <path class="cls-4" d="M48.44,80.2h.31v1.25h.71v.25h-1.01v-1.51Z"/>
    <path class="cls-4" d="M49.28,80.2h1.21v.26h-.45v1.25h-.31v-1.25h-.45v-.26Z"/>
    <path class="cls-4" d="M50.83,80.2h.32l.53,1.51h-.32l-.1-.32h-.54l-.1.32h-.31l.52-1.51ZM50.79,81.15h.4l-.13-.43c-.02-.08-.06-.23-.06-.23h0s-.04.15-.06.23l-.13.43Z"/>
    <path class="cls-4" d="M56.07,80.2h.66c.17,0,.3.05.39.14.08.09.13.2.13.34,0,.28-.19.48-.5.48h-.37v.54h-.32v-1.51ZM56.39,80.91h.32c.16,0,.25-.09.25-.23s-.09-.22-.24-.22h-.32v.45Z"/>
    <path class="cls-4" d="M57.37,80.2h1.11v.26h-.8v.34h.7v.25h-.7v.41h.81v.25h-1.11v-1.51Z"/>
    <path class="cls-4" d="M58.64,80.2h.69c.29,0,.48.17.48.42,0,.18-.08.31-.28.36h0c.14.05.21.13.23.31.02.21.01.38.07.4h0s-.29.01-.29.01c-.04-.02-.04-.19-.05-.35-.01-.16-.1-.26-.29-.26h-.25v.6h-.3v-1.51ZM58.94,80.86h.32c.17,0,.25-.09.25-.21s-.08-.21-.24-.21h-.33v.42Z"/>
    <path class="cls-4" d="M59.97,80.2h1.08v.26h-.77v.36h.66v.26h-.66v.62h-.3v-1.51Z"/>
    <path class="cls-4" d="M61.07,80.95c0-.45.28-.79.73-.79s.72.33.72.79-.28.78-.72.78-.73-.33-.73-.78ZM62.21,80.95c0-.3-.13-.53-.41-.53s-.42.23-.42.53.14.53.42.53.41-.23.41-.53Z"/>
    <path class="cls-4" d="M62.64,80.2h.69c.29,0,.48.17.48.42,0,.18-.08.31-.28.36h0c.14.05.21.13.23.31.02.21.01.38.07.4h0s-.29.01-.29.01c-.04-.02-.04-.19-.05-.35-.01-.16-.1-.26-.29-.26h-.25v.6h-.3v-1.51ZM62.95,80.86h.32c.17,0,.25-.09.25-.21s-.08-.21-.24-.21h-.33v.42Z"/>
    <path class="cls-4" d="M63.97,80.2h.43l.21.76c.05.19.09.41.09.41h0s.04-.22.09-.41l.21-.76h.44v1.51h-.28v-.86c0-.12.01-.31.01-.31h0s-.03.18-.07.29l-.26.89h-.29l-.25-.89c-.03-.11-.07-.29-.07-.29h0s.01.19.01.31v.86h-.28v-1.51Z"/>
    <path class="cls-4" d="M66.06,80.2h.32l.53,1.51h-.32l-.1-.32h-.54l-.1.32h-.31l.52-1.51ZM66.02,81.15h.4l-.13-.43c-.03-.08-.06-.23-.06-.23h0s-.04.15-.06.23l-.13.43Z"/>
    <path class="cls-4" d="M66.99,80.2h.31l.5.84c.05.08.11.21.11.21h0s0-.16,0-.26v-.79h.3v1.51h-.29l-.51-.83c-.05-.08-.11-.21-.11-.21h0s0,.16,0,.26v.78h-.3v-1.51Z"/>
    <path class="cls-4" d="M68.33,80.95c0-.45.28-.79.72-.79.37,0,.59.22.62.51h-.3c-.03-.15-.14-.25-.32-.25-.28,0-.41.23-.41.53s.16.53.41.53c.18,0,.31-.11.33-.27h.3c0,.13-.07.26-.17.36-.1.1-.25.16-.46.16-.42,0-.72-.33-.72-.78Z"/>
    <path class="cls-4" d="M69.79,80.2h1.11v.26h-.8v.34h.7v.25h-.7v.41h.81v.25h-1.11v-1.51Z"/>
    <path class="cls-4" d="M71.01,81.75h.33v-1.42h-.33v-.22h.6v1.86h-.6v-.22Z"/>
  </g>
  <g>
    <path class="cls-5" d="M20.78,49.23h.17l.58.89c.04.07.09.16.09.16h0v-1.05h.15v1.28h-.16l-.59-.89c-.04-.06-.09-.16-.09-.16h0v1.05h-.15v-1.28Z"/>
    <path class="cls-5" d="M21.93,49.87c0-.38.24-.67.62-.67s.62.28.62.67-.24.67-.62.67-.62-.28-.62-.67ZM23.02,49.87c0-.3-.16-.53-.46-.53s-.46.23-.46.53.16.52.46.52.46-.23.46-.52Z"/>
    <path class="cls-5" d="M23.18,49.23h1.01v.14h-.42v1.14h-.16v-1.14h-.43v-.14Z"/>
    <path class="cls-5" d="M24.48,50.11v-.02h.16c0,.24.07.31.22.31.13,0,.2-.07.2-.23v-.94h.16v.95c0,.2-.12.35-.37.35-.23,0-.38-.12-.38-.42Z"/>
    <path class="cls-5" d="M25.39,50.1v-.86h.16v.85c0,.22.12.31.33.31s.32-.09.32-.31v-.85h.16v.86c0,.31-.22.43-.49.43s-.49-.12-.49-.43Z"/>
    <path class="cls-5" d="M26.49,50.08h.16c.02.22.15.33.39.33.18,0,.3-.08.3-.24,0-.17-.15-.22-.38-.27-.22-.05-.42-.11-.42-.35,0-.21.17-.34.43-.34.32,0,.45.16.48.4h-.15c-.02-.18-.14-.27-.33-.27-.17,0-.29.07-.29.21,0,.14.14.19.33.23.25.05.47.11.47.4,0,.24-.19.37-.47.37-.36,0-.53-.2-.54-.46Z"/>
    <path class="cls-5" d="M27.5,49.23h1.01v.14h-.42v1.14h-.16v-1.14h-.43v-.14Z"/>
    <path class="cls-5" d="M20.78,51.25h.21l.41,1.06h0l.41-1.06h.21v1.28h-.15v-1.05h0s-.03.1-.06.16l-.35.89h-.12l-.35-.89c-.02-.06-.06-.16-.06-.16h0v1.05h-.14v-1.28Z"/>
    <path class="cls-5" d="M22.18,51.89c0-.38.24-.67.62-.67s.62.28.62.67-.24.67-.62.67-.62-.28-.62-.67ZM23.26,51.89c0-.3-.16-.53-.46-.53s-.46.23-.46.53.16.52.46.52.46-.23.46-.52Z"/>
    <path class="cls-5" d="M23.42,51.25h.17l.31.95c.02.06.05.17.05.17h0s.03-.11.05-.17l.31-.95h.17l-.45,1.28h-.18l-.44-1.28Z"/>
    <path class="cls-5" d="M24.59,51.25h.9v.14h-.74v.4h.67v.14h-.67v.45h.76v.15h-.92v-1.28Z"/>
    <path class="cls-5" d="M25.56,52.1h.16c.02.22.15.33.39.33.18,0,.3-.08.3-.24,0-.17-.15-.22-.38-.27-.22-.05-.42-.11-.42-.35,0-.21.17-.34.43-.34.32,0,.45.16.48.4h-.15c-.02-.18-.14-.27-.33-.27-.17,0-.29.07-.29.21,0,.14.14.19.33.23.25.05.47.11.47.4,0,.24-.19.37-.47.37-.36,0-.53-.2-.54-.46Z"/>
    <path class="cls-5" d="M26.67,52.35h.17v.18h-.17v-.18Z"/>
    <path class="cls-1" d="M20.76,53.28h.56c.15,0,.26.04.33.12.07.07.11.17.11.29,0,.24-.16.4-.43.4h-.31v.46h-.27v-1.28ZM21.03,53.88h.27c.14,0,.21-.08.21-.19s-.07-.19-.2-.19h-.27v.38Z"/>
    <path class="cls-1" d="M21.86,54.14v-.87h.26v.87c0,.13.07.23.24.23s.24-.1.24-.23v-.86h.26v.87c0,.27-.17.43-.49.43s-.5-.16-.5-.43Z"/>
    <path class="cls-1" d="M23.01,53.28h.59c.25,0,.41.14.41.35,0,.15-.07.26-.23.31h0c.12.04.18.11.19.26.02.18.01.32.06.34h0s-.25.01-.25.01c-.03-.01-.04-.16-.05-.29-.01-.14-.09-.22-.25-.22h-.21v.51h-.26v-1.28ZM23.26,53.84h.27c.14,0,.21-.07.21-.17s-.07-.18-.2-.18h-.28v.35Z"/>
    <path class="cls-1" d="M24.13,53.28h.56c.15,0,.26.04.33.12.07.07.11.17.11.29,0,.24-.16.4-.43.4h-.31v.46h-.27v-1.28ZM24.4,53.88h.27c.14,0,.21-.08.21-.19s-.07-.19-.2-.19h-.27v.38Z"/>
    <path class="cls-1" d="M25.23,53.28h.26v1.06h.6v.22h-.86v-1.28Z"/>
    <path class="cls-1" d="M26.2,53.28h.94v.22h-.68v.29h.6v.21h-.6v.34h.69v.22h-.94v-1.28Z"/>
    <path class="cls-1" d="M20.76,55.3h.36l.18.64c.04.16.08.34.08.34h0s.03-.18.08-.34l.18-.64h.37v1.28h-.24v-.73c0-.1.01-.26.01-.26h0s-.03.15-.06.24l-.22.75h-.25l-.21-.75c-.03-.09-.06-.24-.06-.24h0s.01.16.01.26v.73h-.24v-1.28Z"/>
    <path class="cls-1" d="M22.12,55.94c0-.38.24-.67.62-.67s.61.28.61.67-.24.66-.61.66-.62-.28-.62-.66ZM23.09,55.94c0-.25-.11-.45-.35-.45s-.35.2-.35.45.12.45.35.45.35-.2.35-.45Z"/>
    <path class="cls-1" d="M23.3,55.3h.27l.23.74c.02.08.06.2.06.2h0s.03-.12.06-.2l.22-.74h.26l-.43,1.28h-.24l-.43-1.28Z"/>
    <path class="cls-1" d="M24.46,55.3h.94v.22h-.68v.29h.6v.21h-.6v.34h.69v.22h-.94v-1.28Z"/>
    <path class="cls-1" d="M25.46,56.18h.25c.02.15.11.21.29.21.13,0,.25-.05.25-.16,0-.12-.12-.15-.32-.19-.23-.05-.44-.11-.44-.38,0-.25.21-.38.49-.38s.47.14.49.4h-.25c-.01-.13-.11-.19-.25-.19-.14,0-.23.06-.23.15,0,.1.09.13.28.17.26.06.48.12.48.39,0,.26-.21.4-.5.4-.35,0-.54-.15-.55-.42Z"/>
    <path class="cls-1" d="M26.59,56.32h.26v.26h-.26v-.26Z"/>
  </g>
  <path class="cls-6" d="M84,42.44c-.51,0-.77.19-.77.58v1.8h-1.73v-1.97c0-.26.05-.5.14-.72.1-.22.24-.42.43-.59.19-.17.42-.3.71-.4.28-.1.62-.14,1-.14h2.4c.2,0,.38-.05.54-.14.16-.09.24-.23.24-.41s-.08-.31-.23-.38-.34-.11-.55-.11h-4.69v-1.44h5.01c.31,0,.6.05.87.15.27.1.5.24.7.41.2.17.35.38.46.61.11.24.16.49.16.76,0,.26-.07.5-.2.74-.13.24-.3.45-.51.64-.21.18-.44.33-.7.44-.26.11-.52.17-.77.17h-2.51Z"/>
</svg>