<?xml version="1.0" encoding="UTF-8"?>
<svg id="Camada_1" data-name="Camada 1" xmlns="http://www.w3.org/2000/svg" viewBox="0 0 108 135">
  <defs>
    <style>
      .cls-1 {
        fill: #eef163;
      }

      .cls-2 {
        fill: #ffbf95;
      }

      .cls-3 {
        fill: #1b1b1b;
      }
    </style>
  </defs>
  <g>
    <path class="cls-3" d="M49.83,91.06v-9.94c0-1.37-1.11-2.49-2.49-2.49h-9.94c-1.37,0-2.49-1.11-2.49-2.49v-9.6c0-1.37,1.11-2.49,2.49-2.49h9.94c1.37,0,2.49-1.11,2.49-2.49v-10.16c0-1.37-1.11-2.49-2.49-2.49h-10.16c-1.37,0-2.49,1.11-2.49,2.49v9.78c0,1.37-1.11,2.49-2.49,2.49h-9.94c-1.37,0-2.49,1.11-2.49,2.49v10.16c0,1.37,1.11,2.49,2.49,2.49h9.94c1.37,0,2.49,1.11,2.49,2.49v9.75c0,1.37-1.11,2.49-2.49,2.49h-9.94c-1.37,0-2.49,1.11-2.49,2.49v10.16c0,1.37,1.11,2.49,2.49,2.49h10.16c1.37,0,2.49-1.11,2.49-2.49v-9.94c0-1.37,1.11-2.49,2.49-2.49h9.71c1.37,0,2.49,1.11,2.49,2.49v9.94c0,1.37,1.11,2.49,2.49,2.49h10.16c1.37,0,2.49-1.11,2.49-2.49v-10.16c0-1.37-1.11-2.49-2.49-2.49h-9.92c-1.37,0-2.49-1.11-2.49-2.49Z"/>
    <path class="cls-1" d="M88.22,53.99v-10.16c0-1.37-1.11-2.49-2.49-2.49h-10.16c-1.37,0-2.49,1.11-2.49,2.49v9.98c0,1.37-1.11,2.49-2.49,2.49h-9.92c-1.37,0-2.49,1.11-2.49,2.49v9.94c0,1.37-1.11,2.49-2.49,2.49h-9.94c-1.37,0-2.49,1.11-2.49,2.49v10.16c0,1.37,1.11,2.49,2.49,2.49h10.16c1.37,0,2.49-1.11,2.49-2.49v-9.94c0-1.37,1.11-2.49,2.49-2.49h9.71c1.37,0,2.49,1.11,2.49,2.49v9.94c0,1.37,1.11,2.49,2.49,2.49h10.16c1.37,0,2.49-1.11,2.49-2.49v-10.16c0-1.37-1.11-2.49-2.49-2.49h-9.92c-1.37,0-2.49-1.11-2.49-2.49v-9.75c0-1.37,1.11-2.49,2.49-2.49h9.92c1.37,0,2.49-1.11,2.49-2.49Z"/>
  </g>
  <path class="cls-2" d="M57.04,53.88v-9.94c0-1.37,1.11-2.49,2.49-2.49h9.98c1.37,0,2.49-1.11,2.49-2.49v-10.16c0-1.37-1.11-2.49-2.49-2.49h-10.16c-1.37,0-2.49,1.11-2.49,2.49v9.94c0,1.37-1.11,2.49-2.49,2.49h-9.75c-1.37,0-2.49-1.11-2.49-2.49v-9.94c0-1.37-1.11-2.49-2.49-2.49h-10.16c-1.37,0-2.49,1.11-2.49,2.49v10.16c0,1.37,1.11,2.49,2.49,2.49h9.94c1.37,0,2.49,1.11,2.49,2.49v9.94c0,1.37,1.11,2.49,2.49,2.49h10.16c1.37,0,2.49-1.11,2.49-2.49Z"/>
</svg>